#!OML:ASF E:\Mandelcareful walks\Project 1\Capture day 1\Session 1\Subject1.ASF
:FULLY-SPECIFIED
:DEGREES
1015
root -1.98761 13.4524 -2.68975 27.6596 35.6896 10.8013
lowerback 39.1306 2.84586 -0.207332
upperback 10.4815 5.35627 11.1593
thorax -8.90079 2.5608 9.91832
lowerneck -24.3412 -13.8499 -9.77483
upperneck 17.6589 -17.9057 9.53861
head 11.4873 -7.6791 1.78142
rclavicle -5.08889e-014 1.27222e-014
rhumerus 35.4459 -29.5635 -69.9152
rradius 33.9344
rwrist -41.7887
rhand -11.5621 -39.5625
rfingers 7.12502
rthumb 14.479 -69.0373
lclavicle -5.08889e-014 1.27222e-014
lhumerus -27.573 -30.2854 92.2482
lradius 44.9053
lwrist 32.3784
lhand -27.7865 -14.3565
lfingers 7.12502
lthumb -1.17969 15.62
rfemur -82.1537 -6.63983 -1.9564
rtibia 75.449
rfoot -14.1028 9.62809
rtoes -11.7969
lfemur -63.9797 54.4757 -38.5089
ltibia 87.2936
lfoot -36.1053 15.806
ltoes -21.9221
1016
root -2.00919 13.4328 -2.67207 27.9782 36.0306 11.0794
lowerback 39.1488 2.77047 0.0286654
upperback 10.3907 5.3498 11.0618
thorax -8.96925 2.55986 9.68251
lowerneck -24.4164 -13.9171 -9.67175
upperneck 17.7441 -17.9946 9.3764
head 11.5116 -7.72575 1.68662
rclavicle 6.36111e-015 -9.06458e-014
rhumerus 35.9143 -30.084 -70.0623
rradius 33.3434
rwrist -41.1422
rhand -11.4582 -39.4969
rfingers 7.12502
rthumb 14.5791 -68.9645
lclavicle 6.36111e-015 -9.06458e-014
lhumerus -27.8164 -30.2913 92.3478
lradius 44.6824
lwrist 32.3496
lhand -27.3493 -14.4915
lfingers 7.12502
lthumb -0.757468 15.4869
rfemur -82.3798 -7.06474 -1.90876
rtibia 75.7646
rfoot -14.3085 9.43435
rtoes -13.0771
lfemur -64.2591 54.2084 -38.6057
ltibia 87.3892
lfoot -35.9305 15.8482
ltoes -22.0704
1017
root -2.03076 13.4158 -2.64786 28.233 36.2937 11.3281
lowerback 39.1423 2.68722 0.295997
upperback 10.3625 5.33097 10.9152
thorax -8.94609 2.55045 9.38189
lowerneck -24.4736 -13.9247 -9.51919
upperneck 17.7244 -18.0188 9.25132
head 11.4865 -7.74115 1.6146
rclavicle -8.5875e-014 -6.36111e-014
rhumerus 36.5837 -30.6546 -70.469
rradius 32.7402
rwrist -40.4007
rhand -11.5179 -39.3799
rfingers 7.12502
rthumb 14.5215 -68.8517
lclavicle -8.5875e-014 -6.36111e-014
lhumerus -27.928 -30.3477 92.3839
lradius 44.3872
lwrist 32.2441
lhand -27.2527 -14.6328
lfingers 7.12502
lthumb -0.664164 15.3459
rfemur -82.5477 -7.35729 -1.87888
rtibia 76.0869
rfoot -14.4917 9.17625
rtoes -13.4716
lfemur -64.4215 54.0548 -38.6315
ltibia 87.477
lfoot -35.7656 15.8455
ltoes -21.916
1018
root -2.05841 13.4009 -2.6167 28.4051 36.4403 11.5585
lowerback 39.2654 2.69817 0.390288
upperback 10.3509 5.37428 10.8183
thorax -8.98137 2.56972 9.20109
lowerneck -24.536 -13.8777 -9.29129
upperneck 17.6097 -17.958 9.02534
head 11.3988 -7.73076 1.51699
rclavicle -1.27222e-014 -6.36111e-014
rhumerus 37.5115 -31.3067 -71.2631
rradius 32.2294
rwrist -39.7982
rhand -11.6856 -39.3531
rfingers 7.12502
rthumb 14.36 -68.8365
lclavicle -1.27222e-014 -6.36111e-014
lhumerus -28.1862 -30.7887 92.527
lradius 44.3217
lwrist 32.2174
lhand -27.618 -14.4779
lfingers 7.12502
lthumb -1.01694 15.4994
rfemur -82.68 -7.4466 -1.88624
rtibia 76.4218
rfoot -14.6555 8.97829
rtoes -12.9673
lfemur -64.4869 54.0338 -38.5957
ltibia 87.5577
lfoot -35.549 15.7753
ltoes -21.3966
1019
root -2.08305 13.3761 -2.57451 28.5376 36.6299 11.7947
lowerback 39.564 2.63287 0.619978
upperback 10.2285 5.37753 10.6365
thorax -9.03251 2.5663 8.92148
lowerneck -24.8047 -13.7995 -8.92705
upperneck 17.6497 -17.8673 8.66488
head 11.374 -7.70073 1.34729
rclavicle -3.18055e-015 5.56597e-014
rhumerus 38.7774 -32.152 -72.5672
rradius 31.6227
rwrist -38.964
rhand -11.8218 -39.3443
rfingers 7.12502
rthumb 14.2287 -68.8369
lclavicle -3.18055e-015 5.56597e-014
lhumerus -28.4122 -31.2006 92.5642
lradius 44.2749
lwrist 32.1624
lhand -27.6498 -14.3218
lfingers 7.12502
lthumb -1.04768 15.6554
rfemur -82.7767 -7.47272 -1.96196
rtibia 76.8616
rfoot -14.9038 8.82327
rtoes -12.4573
lfemur -64.3864 54.0256 -38.3698
ltibia 87.6612
lfoot -35.3478 15.5902
ltoes -20.4991
